<?xml version="1.0" encoding="UTF-8" standalone="no"?>
<!-- Created with Inkscape (http://www.inkscape.org/) -->

<svg
   xmlns:dc="http://purl.org/dc/elements/1.1/"
   xmlns:cc="http://creativecommons.org/ns#"
   xmlns:rdf="http://www.w3.org/1999/02/22-rdf-syntax-ns#"
   xmlns:svg="http://www.w3.org/2000/svg"
   xmlns="http://www.w3.org/2000/svg"
   xmlns:sodipodi="http://sodipodi.sourceforge.net/DTD/sodipodi-0.dtd"
   xmlns:inkscape="http://www.inkscape.org/namespaces/inkscape"
   version="1.1"
   id="svg3713"
   width="1280"
   height="720"
   viewBox="0 0 1280 720"
   sodipodi:docname="Logo - yo me sumo bordes.svg"
   inkscape:version="0.92.3 (2405546, 2018-03-11)">
  <metadata
     id="metadata3719">
    <rdf:RDF>
      <cc:Work
         rdf:about="">
        <dc:format>image/svg+xml</dc:format>
        <dc:type
           rdf:resource="http://purl.org/dc/dcmitype/StillImage" />
        <dc:title></dc:title>
      </cc:Work>
    </rdf:RDF>
  </metadata>
  <defs
     id="defs3717" />
  <sodipodi:namedview
     pagecolor="#ffffff"
     bordercolor="#666666"
     borderopacity="1"
     objecttolerance="10"
     gridtolerance="10"
     guidetolerance="10"
     inkscape:pageopacity="0"
     inkscape:pageshadow="2"
     inkscape:window-width="1366"
     inkscape:window-height="745"
     id="namedview3715"
     showgrid="false"
     inkscape:zoom="0.28284271"
     inkscape:cx="748.38534"
     inkscape:cy="-21.065737"
     inkscape:window-x="-8"
     inkscape:window-y="-8"
     inkscape:window-maximized="1"
     inkscape:current-layer="svg3713" />
  <g
     id="g3723"
     transform="translate(4.5342712,-9.0306621)">
    <path
       style="fill:#003276;fill-opacity:1"
       d="M 455.08222,552.25335 C 485.837,459.99269 511,383.74241 511,382.80829 c 0,-1.71355 -4.20601,-5.3297 -18.96843,-16.30829 -4.43736,-3.3 -11.77225,-8.7906 -16.29975,-12.20133 C 471.20432,350.88794 465.025,346.25354 462,344 458.975,341.74646 452.79568,337.11206 448.26818,333.70133 443.74068,330.2906 436.40579,324.8 431.96843,321.5 c -4.43737,-3.3 -10.40805,-7.80559 -13.26818,-10.01242 -2.86014,-2.20682 -9.16276,-6.93182 -14.00583,-10.5 -4.84307,-3.56817 -12.04307,-8.96911 -16,-12.0021 -3.95693,-3.03298 -8.16875,-6.18298 -9.35961,-7 -2.14975,-1.47489 -20.18809,-14.98317 -35.36752,-26.48548 -4.35496,-3.3 -9.14489,-6.9 -10.6443,-8 -1.4994,-1.1 -7.92297,-5.90249 -14.27459,-10.6722 -6.35162,-4.76971 -15.06708,-11.29471 -19.36768,-14.5 -13.72442,-10.22896 -19.88244,-15.52678 -19.01998,-16.36312 0.46159,-0.44761 2.63926,-0.44064 4.83926,0.0155 2.2,0.45613 8.95,1.81795 15,3.02628 6.05,1.20832 13.925,2.79032 17.5,3.51555 3.575,0.72523 11,2.21374 16.5,3.30778 21.66633,4.30982 32.27484,6.42938 38.5,7.69222 11.91663,2.41743 26.38483,5.31565 37.5,7.51187 6.05,1.1954 13.925,2.76594 17.5,3.4901 12.66187,2.56478 26.63924,5.36395 37.5,7.5099 6.05,1.1954 13.925,2.76594 17.5,3.4901 12.66187,2.56478 26.63924,5.36395 37.5,7.5099 6.05,1.1954 13.925,2.76536 17.5,3.48879 3.575,0.72344 11.36677,2.24332 17.31503,3.37752 5.94827,1.13419 11.23221,2.32 11.74208,2.63512 3.1902,1.97165 4.42794,-1.9179 18.51017,-58.16746 7.83037,-31.27731 15.90068,-63.16784 17.93404,-70.86784 2.03335,-7.7 4.32115,-16.7 5.08399,-20 0.76284,-3.3 1.8388,-7.575 2.39101,-9.5 0.90396,-3.15116 3.32611,-12.787245 9.17471,-36.5 1.90912,-7.740419 2.72643,-11.086549 6.35065,-26 2.36938,-9.749872 2.35476,-9.713765 3.74885,-9.256355 0.74533,0.24455 11.83431,42.542808 27.48324,104.833155 14.42857,57.43276 26.94603,107.1232 27.81658,110.4232 0.87055,3.3 2.12574,8.25 2.78932,11 l 1.20651,5 46.4397,0.5 46.43969,0.5 0.70746,3.5 c 3.34949,16.57075 6.6025,28.60638 9.32474,34.5 3.80129,8.22976 13.27704,21.23071 19.87619,27.2706 2.56632,2.34882 4.66604,4.63824 4.66604,5.08759 0,0.44934 -15.3,11.0158 -34,23.481 -18.7,12.4652 -34,23.11406 -34,23.66413 0,0.55007 25.90526,52.80909 57.56724,116.13116 35.43351,70.86488 57.21016,115.48812 56.63851,116.05977 -0.57166,0.57166 -45.20039,-21.20279 -116.07406,-56.63275 C 683.80177,525.90267 631.20117,500 630.24148,500 629.25885,500 580.44453,548.05355 518.5,610 L 408.50341,720 h -4.66948 -4.66949 z M 582.06574,407.96482 C 583.3903,407.25594 584,405.86802 584,403.56171 c 0,-5.68668 5.95592,-48.59428 7.8773,-56.74957 0.99619,-4.22833 2.58643,-8.87094 3.53388,-10.31692 1.46232,-2.23179 1.95923,-2.4327 3.28841,-1.32958 1.38358,1.14828 1.46307,3.80324 0.68309,22.81692 -1.34507,32.78935 -1.22264,35.22741 1.97988,39.42614 2.83162,3.71243 8.29783,6.05638 12.68139,5.43785 3.1564,-0.44537 6.62932,-7.38651 10.48992,-20.96569 1.55251,-5.46076 3.27279,-9.77864 3.82284,-9.59529 0.55005,0.18335 1.6111,3.4566 2.35789,7.2739 C 633.3971,393.27135 640.84408,404 647.67927,404 c 3.32496,0 3.83306,-2.19694 2.28176,-9.86596 -0.73807,-3.64872 -1.59374,-14.68705 -1.90149,-24.52963 -0.55272,-17.67759 -0.59028,-17.91849 -3.08299,-19.7761 -2.94286,-2.19307 -8.78697,-3.34369 -12.38995,-2.4394 -2.95887,0.74263 -8.073,10.59724 -11.60522,22.36254 -1.19739,3.9883 -2.58304,7.50236 -3.07922,7.80902 -0.51927,0.32092 -0.90953,-5.30321 -0.91952,-13.25145 -0.0191,-15.22977 -1.6333,-25.13589 -5.10117,-31.30612 C 609.70085,329.12301 604.99148,326 601.32138,326 c -7.16064,0 -13.32729,14.64186 -17.89956,42.5 -0.90269,5.5 -2.04189,10.4275 -2.53154,10.95 C 580.36666,380.00874 580,375.34836 580,368.13426 c 0,-6.74616 -0.43687,-13.08205 -0.97083,-14.07975 -1.8601,-3.47564 -15.76063,-6.91962 -17.37378,-4.30451 -0.59648,0.96696 1.07183,24.78512 2.32895,33.25 2.11529,14.24344 5.91521,21.74002 12.46608,24.5934 3.75843,1.63707 3.3063,1.60717 5.61532,0.37142 z m 115.38495,-13.37977 c 7.80697,-3.26196 16.40334,-16.2704 19.97651,-30.22939 1.87345,-7.31886 1.97845,-9.65754 0.41013,-9.13477 -0.63946,0.21315 -1.89534,3.06415 -2.79083,6.33554 C 710.74322,377.27702 702.36947,387 693.13367,387 686.5116,387 678.00832,375.08127 677.66812,365.3225 L 677.5,360.5 l 5.62944,0.33803 c 6.44938,0.38726 10.29271,-1.17415 14.13767,-5.74363 7.53685,-8.95703 5.17444,-29.92283 -3.79391,-33.67004 -4.09682,-1.71176 -9.99955,-1.82423 -16.0312,-0.30544 -14.77533,3.72047 -24.78831,39.3894 -16.06345,57.22237 3.22843,6.59867 10.92691,13.891 16.89603,16.00462 5.44548,1.92821 14.85282,2.04553 19.17611,0.23914 z M 677.45847,355.9328 c -1.05766,-1.71132 1.50387,-13.22991 3.88682,-17.47807 1.20163,-2.14221 3.44281,-4.58338 4.98039,-5.42483 2.64316,-1.44648 2.90133,-1.40118 4.73495,0.83088 3.72303,4.53204 1.82761,16.37259 -3.31339,20.69845 -3.03166,2.55097 -9.06343,3.35622 -10.28877,1.37357 z M 1118.5,649.87264 c -32.5615,-4.06727 -55.9892,-21.46679 -67.4533,-50.09698 -4.4576,-11.13235 -7.7843,-24.61639 -9.4749,-38.40411 -2.2664,-18.48355 -3.7966,-53.37776 -3.4147,-77.87155 l 0.3429,-22 h -12.5 -12.5 l -0.8211,7.5 c -1.2411,11.33577 -0.023,69.26197 1.8082,86 2.4721,22.59461 7.7455,44.72688 14.1533,59.40165 2.831,6.48315 3.3973,8.90665 3.155,13.5 L 1031.5,633.5 1005.75,633.76688 980,634.03376 979.9847,525.76688 C 979.97505,457.59475 979.61038,416.9445 979,416 c -0.53316,-0.825 -0.97627,-1.17622 -0.98469,-0.78049 -0.0356,1.67253 -34.0918,216.39277 -34.50194,217.53049 -0.34145,0.9472 -5.65206,1.25 -21.92297,1.25 -11.8098,0 -21.71235,-0.3883 -22.00566,-0.86289 -0.45101,-0.72975 -36.55577,-215.65134 -36.60005,-217.86994 -0.008,-0.42195 -0.45153,-0.0922 -0.98469,0.73283 -0.59917,0.92715 -0.97522,25.46405 -0.98469,64.25 -0.01,38.94669 -0.37562,62.75 -0.96515,62.75 -0.52241,0 -11.778,-21.71682 -25.01241,-48.2596 l -24.06257,-48.2596 0.26241,-37.42767 0.26241,-37.42766 10.5,-6.92601 c 5.775,-3.8093 13.06551,-8.67503 16.20114,-10.81273 3.13563,-2.1377 6.30946,-3.88673 7.05297,-3.88673 0.74351,0 7.17799,1.32657 14.29886,2.94794 14.77032,3.36308 25.90481,5.00521 27.45244,4.04872 0.67839,-0.41927 0.95751,-5.09887 0.77674,-13.02278 L 887.5,331.60555 l -9,-1.26085 c -31.65168,-4.43421 -52.44581,-17.78088 -62.73727,-40.26781 -4.23714,-9.25819 -5.75263,-17.52156 -6.43976,-35.11352 -0.54065,-13.84154 -0.41992,-15.72356 1.10652,-17.25 1.54406,-1.54406 4.74486,-1.71186 32.39194,-1.69806 16.87321,0.008 31.16947,0.34592 31.76945,0.75 0.59998,0.40408 1.58198,6.58469 2.18222,13.73469 2.22768,26.53588 8.84659,34.48046 28.7269,34.48046 10.36151,0 16.65918,-2.27062 22.25533,-8.02416 C 934.12956,270.40281 935.5,265.98672 935.5,252 c 0,-12.00901 -0.11744,-12.71206 -2.98984,-17.89867 -5.97524,-10.7893 -20.25818,-19.42909 -51.15893,-30.94619 C 863.45491,196.48495 857.59485,193.74139 848,187.54078 833.90572,178.43244 822.38079,164.68229 816.80489,150.32257 809.82579,132.34915 809.28932,103.03504 815.55454,82 820.93366,63.939965 833.8047,48.959899 852,39.582628 c 15.94622,-8.218167 31.9627,-11.566785 55.37166,-11.576733 34.23309,-0.01455 57.71553,7.942923 74.1252,25.118738 C 994.01871,66.231101 999.95311,81.966518 1000.3067,103 l 0.1933,11.5 -33.04604,0.26323 -33.04604,0.26322 -1.15316,-10.26322 C 930.72237,82.224564 924.43769,75 907.36359,75 c -18.51108,0 -27.15115,10.689539 -26.18361,32.39448 0.34471,7.73299 0.85163,9.93007 3.36296,14.57566 5.73729,10.61316 20.56043,19.621 51.59992,31.35663 24.5727,9.29061 38.48771,17.43396 49.72659,29.10098 l 6.36946,6.6121 20.63059,-0.26993 L 1033.5,188.5 1033.7499,112 c 0.2304,-70.509757 0.3824,-76.59788 1.9412,-77.75 2.0764,-1.534715 63.9095,-1.787782 66.3089,-0.271386 1.3142,0.830591 1.5619,15.101194 2,115.234686 0.4673,106.81236 0.6171,114.581 2.291,118.7867 4.8054,12.07384 11.9609,17 24.6935,17 9.3467,0 14.9905,-2.51615 19.7255,-8.79413 7.1507,-9.48084 6.737,-1.96976 7.0585,-128.16465 0.2242,-87.989284 0.5632,-113.632966 1.5103,-114.234692 1.4291,-0.907975 63.8029,-1.096154 66.1394,-0.199539 1.4287,0.548228 1.5815,10.882294 1.579,106.750001 0,70.96514 -0.3669,109.12579 -1.1014,115.14301 -4.0286,33.00421 -16.3518,53.40352 -39.3958,65.21377 -6.9947,3.58484 -7.0051,3.58669 -13.7686,2.43689 C 1169.0087,322.5178 1164.6078,322 1162.9516,322 h -3.0114 l 0.2799,12.68543 0.2799,12.68544 11,2.16559 c 23.5347,4.63332 41.1141,15.97728 52.8218,34.08597 15.0333,23.25223 19.6701,50.45005 19.6701,115.37757 0,46.97462 -2.199,71.12403 -8.1951,90 -11.4169,35.9411 -33.5984,55.11419 -69.9251,60.44139 -11.4861,1.68439 -35.5831,1.90376 -47.3717,0.43125 z m 34.0707,-47.76545 c 5.0548,-2.29583 9.8766,-8.02266 12.3766,-14.69952 5.4376,-14.52283 7.0329,-34.57666 7.0329,-88.40767 0,-65.61203 -2.6361,-86.2283 -12.4988,-97.75068 -4.8606,-5.67859 -10.2512,-7.56237 -20.3304,-7.10465 -6.9623,0.31617 -8.5461,0.7532 -12.3202,3.39933 -8.3548,5.85791 -12.7739,19.09617 -14.8399,44.456 -1.3093,16.07165 -1.2974,99.96655 0.016,115 2.3753,27.18101 7.2725,39.95952 17.1965,44.87181 5.6749,2.80901 17.4397,2.92752 23.367,0.23538 z M 935.51761,442.66001 c 6.39502,-43.91199 11.38382,-80.47449 11.08623,-81.25 C 946.15898,360.25072 941.7841,360 922,360 c -20.76112,0 -24.14398,0.21164 -24.65467,1.54247 -0.54965,1.43235 23.06912,161.13643 24.32176,164.45753 0.4145,1.09897 0.78733,0.83161 1.39449,-1 0.45581,-1.375 6.06102,-38.42799 12.45603,-82.33999 z m 133.79709,-72.05419 c 5.26,-5.16679 9.291,-9.66679 8.9578,-10 -0.7891,-0.78909 -15.6339,-0.78811 -17.6907,0.001 -1.287,0.49388 -1.5818,2.35729 -1.5818,10 0,5.16615 0.169,9.39301 0.3755,9.39301 0.2065,0 4.6791,-4.22738 9.9392,-9.39418 z M 327,642.35216 C 299.82389,638.2706 281.93512,629.30616 268.42706,613 c -6.74731,-8.14496 -14.83335,-25.37378 -18.30396,-39 -5.44052,-21.36041 -6.5949,-36.29278 -6.60979,-85.5 -0.0139,-45.92176 0.76326,-59.27933 4.61845,-79.38081 C 258.31318,356.03193 290.47442,331 348.5,331 c 46.67315,0 75.82515,15.7126 91.51714,49.3267 7.3754,15.79898 11.0101,32.86788 12.95986,60.86069 2.09824,30.12474 4.5612,19.60236 -26.04147,111.25584 -14.88546,44.58123 -27.59796,81.57945 -28.25,82.21828 -1.78959,1.75333 -13.94289,5.20942 -24.12795,6.86137 -8.27567,1.34226 -40.41103,1.90262 -47.55758,0.82928 z m 33.6906,-49.88527 c 10.96615,-5.46466 16.11185,-19.1272 18.40216,-48.86027 1.68207,-21.83688 0.66077,-115.34499 -1.39373,-127.60662 -3.3036,-19.71648 -7.89,-29.02856 -16.74573,-34 -3.78761,-2.12629 -5.73562,-2.5 -13.03172,-2.5 -7.78997,0 -9.02301,0.27573 -13.41565,3 -9.5342,5.91301 -14.45435,20.05528 -16.5806,47.65859 -1.73569,22.53294 -0.69274,116.46977 1.43604,129.34141 4.36072,26.36714 11.7324,35.5 28.65418,35.5 6.11985,0 8.57732,-0.49113 12.67505,-2.53311 z M 95.679419,636.34609 C 95.305739,635.97241 95,609.58528 95,577.70803 V 519.7494 L 57.5,430.03975 C 36.875,380.69945 20,339.58084 20,338.66506 20,337.14051 23.24588,337 58.464816,337 c 35.616549,0 38.532838,0.12959 39.383418,1.75 0.50523,0.9625 7.982556,25.15 16.616276,53.75 8.63372,28.6 16.07965,52.39597 16.54652,52.87994 0.91151,0.9449 1.12621,0.29215 21.33926,-64.87994 l 13.3364,-43 37.65665,-0.26203 C 238.02058,336.99668 241,337.10864 241,338.65303 c 0,0.92239 -16.87135,42.03768 -37.49188,91.3673 l -37.49188,89.69022 -0.25812,58.39473 L 165.5,636.5 l -34.57058,0.26275 c -19.01382,0.14452 -34.87632,-0.043 -35.250001,-0.41666 z M 811,627 c 0,-3.85 0.3375,-7.00046 0.75,-7.00103 1.6407,-0.002 25.25,12.23552 25.25,13.08822 0,0.5036 -5.82782,0.91281 -13,0.91281 h -13 z"
       id="path3727"
       inkscape:connector-curvature="0" />
    <path
       style="fill:#029e2e"
       d="m 399.58958,719.23469 c 1.46765,-0.98962 112.63464,-334.83188 112.21761,-336.99735 -0.31068,-1.61325 -8.52255,-8.4955 -21.48691,-18.00787 -3.20115,-2.34879 -9.52574,-7.07379 -14.05462,-10.5 -9.35189,-7.07492 -16.43013,-12.38395 -44.02327,-33.01967 C 427.98407,317.5252 420.675,312.0346 416,308.50848 c -4.675,-3.52612 -10.975,-8.24227 -14,-10.48034 -3.025,-2.23806 -9.2055,-6.87246 -13.73444,-10.29867 C 383.73661,284.30326 376.40947,278.8 371.98302,275.5 367.55657,272.2 361.24614,267.475 357.95985,265 354.67356,262.525 348.5007,257.89441 344.24239,254.7098 339.98407,251.5252 332.675,246.0346 328,242.50848 c -4.675,-3.52612 -10.975,-8.24227 -14,-10.48034 -5.58943,-4.13536 -18.63261,-13.97092 -27.25,-20.54858 -2.6125,-1.99412 -4.75,-3.98238 -4.75,-4.41834 0,-0.43597 1.9125,-0.39971 4.25,0.0806 2.3375,0.48029 8.975,1.79001 14.75,2.91049 10.07501,1.95479 20.90485,4.1115 37,7.36837 4.125,0.8347 12.225,2.45793 18,3.60718 22.84888,4.54701 29.79727,5.93534 37,7.39282 4.125,0.8347 12.225,2.45793 18,3.60718 22.84888,4.54701 29.79727,5.93534 37,7.39282 4.125,0.8347 12.225,2.45793 18,3.60718 22.84888,4.54701 29.79727,5.93534 37,7.39282 4.125,0.8347 12.225,2.45793 18,3.60718 5.775,1.14924 15,2.98534 20.5,4.08022 22.38394,4.45593 27.73534,5.23327 29.28735,4.25429 1.40805,-0.88817 2.25385,-3.67194 6.64255,-21.86234 4.2648,-17.67687 11.49566,-46.672 12.59378,-50.5 0.55221,-1.925 1.70298,-6.425 2.55725,-10 0.85427,-3.575 2.45098,-10.1 3.54823,-14.5 1.09726,-4.4 2.59803,-10.475 3.33504,-13.5 0.73701,-3.025 2.27313,-8.875 3.41361,-13 1.14047,-4.125 7.56981,-29.44657 14.28741,-56.270159 7.09839,-28.344071 12.64709,-48.625736 13.24831,-48.42533 0.56897,0.189657 1.56049,2.786228 2.20338,5.770159 0.64289,2.983932 2.13762,9.02533 3.32162,13.42533 1.184,4.4 2.79184,10.7 3.57297,14 4.72985,19.982015 11.39325,46.73915 12.45163,50 0.53554,1.65 1.62044,5.925 2.41089,9.5 2.09322,9.46718 7.45704,31.01211 8.58911,34.5 0.53554,1.65 1.62044,5.925 2.41089,9.5 2.09322,9.46718 7.45704,31.01211 8.58911,34.5 0.53554,1.65 1.61188,5.925 2.39186,9.5 0.77998,3.575 3.04986,12.575 5.04418,20 1.99431,7.425 4.35579,16.65 5.24773,20.5 0.89193,3.85 2.06637,7.5625 2.60984,8.25 0.76475,0.9674 11.33594,1.25 46.75872,1.25 49.84931,0 46.98454,-0.33478 46.98454,5.49058 0,1.27986 1.54735,8.47017 3.43856,15.97849 4.5551,18.08431 9.89696,27.60557 23.44173,41.78226 3.54772,3.71322 6.26349,6.92404 6.03505,7.13514 -0.22844,0.21109 -15.36145,10.35196 -33.62893,22.53524 -18.26747,12.18329 -33.47839,22.5799 -33.80203,23.10357 -0.32365,0.52367 25.30997,52.72009 56.96359,115.99205 C 837.10158,560.28929 863,612.26938 863,612.52863 863,612.78788 862.32422,613 861.49826,613 860.6723,613 808.69809,587.35 746,556 683.30191,524.65 631.21043,499 630.24115,499 c -1.00599,0 -49.17265,47.42329 -112.2321,110.5 L 407.53928,720 l -4.51964,-0.0153 c -2.4858,-0.008 -4.02933,-0.34592 -3.43006,-0.75 z M 584.09883,408.25 c 0.0544,-0.4125 0.21933,-2.55 0.36659,-4.75 0.61714,-9.21953 6.72167,-50.60914 8.5365,-57.87876 2.04563,-8.19409 3.5276,-11.03005 5.21797,-9.98534 0.64578,0.39911 0.75801,10.6282 0.3208,29.23899 -0.65531,27.89471 -0.61923,28.70952 1.41408,31.93325 2.24565,3.56038 8.83592,7.13392 13.22265,7.1699 3.95037,0.0324 6.10654,-3.43645 10.39347,-16.72112 2.08667,-6.46631 4.10546,-12.12803 4.48622,-12.58162 0.38075,-0.45358 0.99551,0.89642 1.36612,3 1.25418,7.11875 4.67925,16.16609 7.69723,20.33229 3.62595,5.00548 9.10323,7.66715 12.54795,6.09763 2.76579,-1.26018 2.84634,-2.64647 0.71407,-12.28984 -1.13445,-5.13065 -1.60022,-12.05987 -1.55959,-23.2019 l 0.0579,-15.88651 -2.71634,-2.71634 c -3.11039,-3.11039 -10.32319,-4.66118 -14.42537,-3.10153 -2.86245,1.0883 -6.81019,8.57302 -10.86046,20.5909 l -2.35914,7 -0.66525,-14 c -0.75774,-15.94666 -1.96131,-22.28021 -5.3278,-28.03667 -2.77015,-4.73677 -6.25149,-6.86333 -11.23576,-6.86333 -7.12976,0 -12.3418,10.47382 -17.09412,34.35136 L 581.5,373.5 581,364 c -0.275,-5.225 -0.86604,-10.0657 -1.31341,-10.75711 -2.37697,-3.67356 -14.78091,-6.49649 -17.87292,-4.06758 -1.56217,1.22716 -1.58272,2.49071 -0.27901,17.1616 2.29606,25.83812 3.90429,31.98699 10.04392,38.40174 3.52434,3.68226 4.64545,4.26135 8.25,4.26135 2.29428,0 4.2159,-0.3375 4.27025,-0.75 z m 116.45532,-14.79065 c 2.73036,-1.69544 6.39323,-5.30835 8.57631,-8.45935 6.84857,-9.88506 12.87639,-30.5 8.91821,-30.5 -0.93511,0 -2.53571,3.20119 -4.5,9 -3.74061,11.04268 -6.62677,15.81963 -11.83936,19.59562 -5.93485,4.29918 -10.8197,4.03563 -15.67356,-0.84562 C 682.11414,378.30627 678,369.00203 678,364.07695 c 0,-2.83942 0.0189,-2.84766 6.25,-2.73068 7.18091,0.13481 11.0598,-1.66572 14.54458,-6.75143 6.29689,-9.18971 4.2841,-28.22532 -3.52482,-33.33542 -3.88962,-2.54534 -16.7685,-2.32031 -21.38109,0.37359 -7.2538,4.23645 -12.69589,14.65715 -15.59768,29.86699 -3.4855,18.26937 1.70698,32.62509 14.84847,41.0518 8.42933,5.40513 19.57736,5.77418 27.41469,0.90755 z M 679.25,356.35851 C 674.69249,354.4437 682.73963,333 688.01571,333 c 5.71185,0 5.23818,15.97708 -0.62769,21.17209 -2.11677,1.87467 -6.24205,2.98301 -8.13802,2.18642 z M 989.41097,459.59962 C 989.18501,458.99483 988.8876,436.675 988.75006,410 L 988.5,361.5 l -20,-0.7515 c -44.06367,-1.65568 -68.90843,-1.88495 -73.24323,-0.67589 -2.97636,0.83017 -4.61845,0.86999 -5.5,0.13339 C 888.79254,359.40031 888.5,351.16521 888.5,324.82793 V 290.5 l 48.90911,-0.25961 c 34.08767,-0.18093 49.31546,-0.59684 50.25,-1.37244 C 988.74672,287.96532 989,278.55308 989,239.03934 v -48.71577 l 34.0901,-0.66512 c 18.7496,-0.36581 34.4996,-0.41206 35,-0.10277 0.5264,0.32536 0.9099,21.13653 0.9099,49.38089 0,39.59967 0.2532,49.02869 1.3409,49.93138 0.9345,0.7756 16.1623,1.19151 50.25,1.37244 L 1159.5,290.5 v 34.79331 c 0,34.00206 -0.046,34.80477 -2.0074,35.29752 -2.4335,0.61124 -70.8832,-0.29497 -85.2138,-1.12816 -6.1121,-0.35535 -10.9363,-0.19359 -12,0.40238 -1.6679,0.93451 -1.7788,4.10213 -1.7788,50.81579 V 460.5 l -34.3391,0.0996 c -24.1348,0.07 -34.46117,-0.22714 -34.74993,-1 z"
       id="path3725"
       inkscape:connector-curvature="0" />
  </g>
</svg>
